<?xml version="1.0" encoding="utf-8"?>
<!-- Generator: Adobe Illustrator 21.1.0, SVG Export Plug-In . SVG Version: 6.00 Build 0)  -->
<svg version="1.0" id="Layer_1" xmlns="http://www.w3.org/2000/svg" xmlns:xlink="http://www.w3.org/1999/xlink" x="0px" y="0px"
	 viewBox="0 0 278 285" enable-background="new 0 0 278 285" xml:space="preserve">
<g>
	<path fill="#E2197A" d="M14.7,99c5.7-15.9,14.5-30.7,25.8-43.2c11.3-12.5,25.1-22.9,40.4-30.2c15.3-7.3,32-11.6,48.9-12.6
		c16.9-1,34.1,1.5,50.1,7.1c16,5.6,31,14.4,43.7,25.8c12.7,11.4,23.2,25.3,30.5,40.7c7.4,15.4,11.7,32.3,12.6,49.4
		c0.9,17.1-1.7,34.3-7.4,50.5c-5.8,16.1-14.7,31.1-26.3,43.7c-11.5,12.7-25.6,23-41,30.2c-15.5,7.2-32.4,11.4-49.4,12.1
		c-17,0.7-34.2-1.9-50.1-7.8c-16-5.8-30.8-14.8-43.3-26.3C36.7,227,26.5,213,19.3,197.7C12.2,182.4,8,165.6,7.2,148.8
		C6.4,131.9,9,114.9,14.7,99z M14.7,99c-5.7,15.9-8.2,32.9-7.3,49.8c0.9,16.9,5.1,33.5,12.4,48.7c7.3,15.2,17.6,28.9,30.1,40.2
		c12.5,11.2,27.3,19.9,43.1,25.5c15.8,5.5,32.7,8,49.5,7c16.7-0.9,33.2-5.2,48.3-12.4c15.1-7.2,28.7-17.4,39.9-29.8
		c11.2-12.4,19.9-27,25.5-42.7c5.6-15.7,8.2-32.5,7.4-49.1c-0.8-16.7-4.8-33.2-11.9-48.3c-7.1-15.1-17.1-28.9-29.4-40.2
		c-12.3-11.3-26.9-20.2-42.7-25.9c-15.8-5.7-32.7-8.4-49.5-7.7c-16.8,0.7-33.5,4.8-48.8,11.9C65.9,33.2,52,43.3,40.6,55.8
		C29.3,68.3,20.4,83.1,14.7,99z"/>
	<text transform="matrix(1 0 0 1 13.2882 137.7568)" fill="#E2197A" font-family="'SnellRoundhand'" font-size="57.1918px">...Augusta</text>
	<text transform="matrix(1 0 0 1 109.3449 173.7891)" fill="#7C7679" font-family="'PlantagenetCherokee'" font-size="25.2708px">photography</text>
	<text transform="matrix(1 0 0 1 159.4899 193.8604)" fill="#E2197A" font-family="'SnellRoundhand'" font-size="57.1918px">...</text>
</g>
</svg>
