<?xml version="1.0" encoding="utf-8"?>
<!-- Generator: Adobe Illustrator 21.1.0, SVG Export Plug-In . SVG Version: 6.00 Build 0)  -->
<svg version="1.0" id="Layer_1" xmlns="http://www.w3.org/2000/svg" xmlns:xlink="http://www.w3.org/1999/xlink" x="0px" y="0px"
	 viewBox="0 0 80 71" enable-background="new 0 0 80 71" xml:space="preserve">
<g id="XMLID_870_">
	<circle id="XMLID_276_" fill="#808080" cx="39.1" cy="35.5" r="25"/>
	<g id="XMLID_279_">
		<path id="XMLID_882_" fill="#FFFFFF" d="M41.5,43.2c-1.8-0.1-3.7-1.4-4-1.9c0,0,0,0,0,0c-0.8,4.1-3.2,13-6.1,15.1
			c-0.9-6.2,2.8-15.8,3.8-20.8c-1.7-2.9,0.2-8.6,3.8-7.2c4.4,1.7-3.8,10.7,1.7,11.8c5.8,1.2,8.1-10,4.6-13.7
			c-5.2-5.3-15.1-0.1-13.9,7.4c0.3,1.8,2.2,2.4,0.8,4.9c0,0,0,0,0,0c-3.1-0.8-4.3-4-4.2-6.8c0.3-5.7,5.1-9.7,10.1-10.2
			c6.2-0.7,12.1,2.3,12.9,8.2C51.9,36.5,48.2,43.7,41.5,43.2L41.5,43.2z M41.5,43.2"/>
	</g>
</g>
</svg>
